<svg height="100%" width="100%" xmlns="http://www.w3.org/2000/svg">
<g transform="translate(-20.5692, -199.338)">
<path d="M614.2023,870.96054l-213.57497-108.51937-210.19224,114.97412,36.88378-237.29975-173.954498-165.00912,236.370398-38.13994,102.68245-216.95536,109.20116,213.72796,237.41574,30.92333-168.88037,170.23110,44.04855,236.06703z" fill="red"/>
<path d="M538.30344,768.17241l-136.00476-70.80556-135.24689,72.25170,25.09963-151.63815-110.29201-106.70797,151.51718-22.91197,67.08268-138.20086,68.54315,137.47777,151.75138,21.29515-109.15519,107.87791,26.70483,151.36198z" fill="orange"/>
<path d="M481.37933,688.22618l-80.91613-44.51486-82.42705,41.63183,17.19796-90.95549-64.94052-65.77621,91.54506-11.69873,42.29160-82.28375,39.37999,83.72527,91.07817,14.92205-67.20689,63.44379,13.99781,91.50610z" fill="yellow"/>
<path d="M455.72934,641.26392l-52.53591-26.44341-51.49804,28.42377,8.83525-58.29437-42.86101-40.34931,57.99639-9.5845,25.00849-53.36102,27.00848,52.37083,58.31711,7.37038-41.30423,41.95146,11.03347,57.91617z" fill="green"/>
<path d="M435.84003,604.47291l-29.23190-13.71944-27.83806,16.37907,3.97360-32.12881-24.13066-21.49804,31.68772-6.13726,12.92449-29.66559,15.61049,28.33578,32.11844,3.16370-22.03991,23.64973,6.92579,31.62086z" fill="blue"/>
<path d="M426.15813,586.29917l-17.76006-7.03587-16.31816,9.57939,1.72719-17.83871-14.86634-11.43257,18.82750-3.98906,7.13026-16.64510,9.90885,15.37334,19.27309,1.14532-12.70351,13.49032,4.78118,17.35294z" fill="purple"/>
</g>
</svg>